<?xml version="1.0" encoding="UTF-8" standalone="no"?>
<!-- Created with Inkscape (http://www.inkscape.org/) -->

<svg
   width="224.78267mm"
   height="209.50381mm"
   viewBox="0 0 224.78267 209.50381"
   version="1.1"
   id="svg1"
   xml:space="preserve"
   xmlns:inkscape="http://www.inkscape.org/namespaces/inkscape"
   xmlns:sodipodi="http://sodipodi.sourceforge.net/DTD/sodipodi-0.dtd"
   xmlns="http://www.w3.org/2000/svg"
   xmlns:svg="http://www.w3.org/2000/svg"><sodipodi:namedview
     id="namedview1"
     pagecolor="#ffffff"
     bordercolor="#000000"
     borderopacity="0.25"
     inkscape:showpageshadow="2"
     inkscape:pageopacity="0.0"
     inkscape:pagecheckerboard="0"
     inkscape:deskcolor="#d1d1d1"
     inkscape:document-units="mm" /><defs
     id="defs1" /><g
     inkscape:label="Layer 1"
     inkscape:groupmode="layer"
     id="layer1"
     transform="translate(106.51081,-386.23946)"><path
       d="m -98.231213,501.23349 c -3.062497,-0.14789 -6.208667,1.46072 -7.705477,4.25659 l -0.57412,1.07228 v 23.01875 23.01875 l 0.72037,3.30729 c 0.7551,3.46695 1.76268,6.81212 2.59054,8.59896 0.26969,0.58208 1.01352,2.18943 1.65261,3.57188 1.18643,2.56643 4.725346,8.01706 6.441984,9.92187 3.974909,4.41061 6.795417,6.89582 10.858252,9.56738 3.385099,2.22589 4.909023,3.01916 8.974646,4.67206 4.895881,1.99045 9.318501,3.00059 14.666805,3.35019 1.673487,0.10937 32.570241,0.17557 68.659375,0.14727 71.563108,-0.0562 66.656755,0.0443 72.892708,-1.4919 2.622038,-0.6459 7.417977,-2.48437 10.445874,-4.0044 2.301848,-1.15555 7.757257,-4.75259 9.016506,-5.94486 0.42977,-0.40692 1.27169,-1.12474 1.87069,-1.59525 0.59898,-0.47051 2.1302,-2.04184 3.40289,-3.49229 5.92454,-6.75203 10.0042,-14.84946 11.82253,-23.46575 0.60252,-2.85512 0.608,-3.06187 0.6873,-25.71936 l 0.0796,-22.8415 -0.62683,-1.36943 c -0.80152,-1.75076 -1.91815,-2.8582 -3.82613,-3.79512 -3.80222,-1.86711 -8.73262,-0.23445 -10.65464,3.52847 l -0.65423,1.28157 -0.14573,21.69584 c -0.10721,16.00406 -0.23297,22.1123 -0.48007,23.28333 -1.15126,5.45608 -3.747031,11.21238 -6.621818,14.68438 -2.835515,3.42457 -3.123561,3.70165 -7.270357,7.00319 -2.585277,2.0583 -9.108077,4.8583 -13.053983,5.60379 -2.477748,0.4681 -5.502004,0.48989 -69.26554,0.48989 -63.51763,0 -66.787825,-0.0228 -69.052633,-0.48317 -7.407096,-1.50555 -14.373618,-5.66889 -19.352307,-11.56519 -3.351048,-3.96867 -6.124746,-9.57829 -7.274491,-14.71228 -0.568463,-2.53837 -0.588343,-3.1879 -0.738973,-24.30394 -0.151963,-21.30298 -0.164693,-21.71739 -0.709001,-22.88646 -0.716947,-1.53986 -1.982106,-2.75261 -3.805969,-3.64836 -0.937928,-0.46064 -1.949529,-0.70518 -2.970361,-0.75447 z"
       id="path4" /><path
       d="m 5.8647583,386.23947 c -3.3009564,0 -5.91378886,1.53199 -7.2543376,4.25349 l -0.6108154,1.24023 -0.1322917,62.4086 -0.1322916,62.40859 -21.298958,-21.33513 c -23.65935,-23.69969 -22.562653,-22.74118 -26.022185,-22.73918 -4.487056,0.003 -7.847354,3.40441 -7.890474,7.98711 -0.0343,3.64487 -1.898707,1.56442 29.86381,33.3282 26.89606401,26.89713 29.7144954,29.58827 31.4332236,30.01625 0.2910397,0.0725 1.2435376,0.14418 2.1166667,0.15968 3.2562267,0.0576 1.5498221,1.60234 33.1266597,-29.98938 32.001028,-32.01611 30.099334,-29.89027 30.074134,-33.60932 -0.02625,-3.8756 -2.29465,-6.69753 -6.184636,-7.6941 -1.757408,-0.45023 -3.759792,-0.23535 -5.350061,0.57412 -0.476569,0.24258 -10.357354,9.93291 -21.957833,21.53409 -11.600488,11.60117 -21.272465,21.24275 -21.492744,21.42556 -0.35744,0.29667 -0.393498,-6.31892 -0.338998,-61.54249 0.04843,-49.06868 -0.0081,-62.10054 -0.271818,-62.96773 -0.571379,-1.87862 -2.117153,-3.68415 -3.9573811,-4.62143 -1.4318886,-0.7293 -1.9123614,-0.83716 -3.7196696,-0.83716 z"
       id="path3" /></g></svg>
