<?xml version="1.0" encoding="UTF-8" standalone="no"?>
<!-- Created with Inkscape (http://www.inkscape.org/) -->

<svg
   width="54.743671mm"
   height="65.749306mm"
   viewBox="0 0 54.743671 65.749306"
   version="1.1"
   id="svg1"
   xml:space="preserve"
   xmlns:inkscape="http://www.inkscape.org/namespaces/inkscape"
   xmlns:sodipodi="http://sodipodi.sourceforge.net/DTD/sodipodi-0.dtd"
   xmlns="http://www.w3.org/2000/svg"
   xmlns:svg="http://www.w3.org/2000/svg"><sodipodi:namedview
     id="namedview1"
     pagecolor="#ffffff"
     bordercolor="#000000"
     borderopacity="0.25"
     inkscape:showpageshadow="2"
     inkscape:pageopacity="0.0"
     inkscape:pagecheckerboard="0"
     inkscape:deskcolor="#d1d1d1"
     inkscape:document-units="mm" /><defs
     id="defs1" /><g
     inkscape:label="Layer 1"
     inkscape:groupmode="layer"
     id="layer1"
     transform="translate(-50.425283,-89.218122)"><path
       style="fill:#060606;stroke:none"
       d="m 53.406251,89.669351 c -4.369175,1.063731 -2.645833,10.732559 -2.645833,14.146429 v 35.18959 9.26041 c 0,1.52419 -0.231993,3.37265 0.566118,4.75087 1.710225,2.9533 9.206587,1.59913 12.133882,1.59913 h 26.722916 c 3.730493,0 8.872052,0.91814 12.434396,-0.21273 3.20651,-1.0179 2.11769,-6.17773 2.11769,-8.7831 v -26.72292 c 0,-3.27912 0.97277,-8.28878 0.004,-11.37708 -0.5733,-1.82854 -2.92185,-3.44652 -4.23783,-4.7625 -2.806091,-2.806096 -5.759072,-5.523953 -8.421749,-8.466668 -1.345339,-1.486832 -2.872297,-3.826874 -4.807414,-4.566105 -2.64636,-1.010933 -6.965232,-0.196395 -9.789583,-0.196395 H 61.343751 c -2.498876,0 -5.502771,-0.451696 -7.9375,0.141069 m 31.749999,2.769348 c 0,4.297457 -1.946364,14.465401 2.910619,16.571571 2.779271,1.2052 7.317588,0.36176 10.318548,0.36176 0.918383,0 3.046583,-0.39865 3.544523,0.61328 1.06032,2.15485 0.15964,6.77442 0.15964,9.17631 v 22.75416 7.14375 c -3.4e-4,0.76103 0.22263,2.07487 -0.61327,2.48619 -1.0651,0.5241 -2.983895,0.15965 -4.149226,0.15965 h -9.525 -34.131249 V 92.438699 H 85.15625 m 3.175,2.116667 11.377083,11.906254 H 92.3 c -1.008312,0 -2.496597,0.26319 -3.400386,-0.27194 -1.001985,-0.59327 -0.832499,-1.9079 -0.832947,-2.90306 -0.0011,-2.53517 -0.715993,-6.39441 0.264583,-8.731254 M 76.425001,133.7137 c -1.178168,-0.95944 -2.29355,-1.98783 -3.439584,-2.98494 -1.046692,-0.91066 -2.305101,-2.47575 -3.703145,-2.81425 -0.982013,-0.23777 -1.911571,0.54046 -1.627922,1.56688 0.696842,2.5216 5.506442,5.38909 7.447734,7.06801 0.754936,0.6529 1.809852,1.85078 2.910417,1.75164 0.99989,-0.0901 1.930348,-1.13286 2.645833,-1.75164 1.941298,-1.67892 6.750888,-4.5464 7.447736,-7.06801 0.283078,-1.02434 -0.645741,-1.80769 -1.627924,-1.56668 -1.380948,0.33887 -2.669576,1.93771 -3.703145,2.84754 -1.133796,0.99805 -2.268257,1.99771 -3.439584,2.95145 v -15.08125 c 0,-1.25129 0.536103,-4.35147 -1.33047,-4.51997 -2.118193,-0.19121 -1.579946,3.26266 -1.579946,4.51997 z"
       id="path1" /></g></svg>
