<?xml version="1.0" encoding="UTF-8" standalone="no"?>
<!-- Created with Inkscape (http://www.inkscape.org/) -->

<svg
   width="102.98441mm"
   height="105.06552mm"
   viewBox="0 0 102.98441 105.06552"
   version="1.1"
   id="svg1"
   xml:space="preserve"
   xmlns:xlink="http://www.w3.org/1999/xlink"
   xmlns="http://www.w3.org/2000/svg"
   xmlns:svg="http://www.w3.org/2000/svg"><defs
     id="defs1"><linearGradient
       id="linearGradient204"><stop
         style="stop-color:#6b8aa7;stop-opacity:1;"
         offset="0"
         id="stop204" /><stop
         style="stop-color:#6b8aa7;stop-opacity:0;"
         offset="1"
         id="stop205" /></linearGradient><linearGradient
       xlink:href="#linearGradient204"
       id="linearGradient205"
       x1="63.934952"
       y1="158.44476"
       x2="166.91937"
       y2="158.44476"
       gradientUnits="userSpaceOnUse" /></defs><g
     id="layer1"
     transform="translate(-63.934953,-105.91201)"><path
       style="fill:#242e38;fill-opacity:0.996983;stroke:url(#linearGradient205);stroke-opacity:1"
       d="m 149.38371,210.07271 c 8.62721,-1.55278 16.06624,-9.20719 17.03565,-17.94802 -0.008,-22.89922 -0.0162,-45.79843 -0.0243,-68.69765 -1.79629,-8.4563 -8.69808,-15.80494 -17.48452,-16.81092 -13.12099,-0.53135 -26.27021,0.17846 -39.40284,-0.11225 -9.645289,0.13809 -19.325079,-0.34644 -28.947852,0.33233 -9.519559,1.91772 -16.657604,11.26456 -16.061365,20.94862 -0.0922,21.01581 -0.08956,42.03685 0.04442,63.05104 0.277506,10.91957 10.565907,20.37378 21.506134,19.57339 21.109253,0.0966 42.231983,0.1652 63.334663,-0.33654 z"
       id="path100" /><g
       id="g200"
       style="stroke:#6b8aa7;stroke-opacity:1"><path
         style="fill:none;fill-opacity:1;stroke:#6b8aa7;stroke-opacity:1"
         d="m 114.78128,144.13069 c -3.11938,-2.62045 -3.73751,-7.30797 -0.30877,-4.32969 0.25469,-4.79369 -3.55189,-9.55908 -8.62877,-9.07794 -1.83631,0.50655 -10.632226,-0.3187 -5.42709,-2.08916 5.04565,-0.28839 11.21197,-0.38573 14.25684,4.48321 2.29057,1.01409 0.79132,7.932 2.80982,6.04144 5.2931,-3.4224 -1.6744,7.31825 -2.70203,4.97214 z"
         id="path188" /><path
         style="fill:none;fill-opacity:1;stroke:#6b8aa7;stroke-opacity:1"
         d="m 142.6658,171.01759 c -2.38912,-1.72737 -1.96203,-6.07924 0.98345,-2.47881 1.04424,-5.08061 -2.65142,-10.82311 -8.10925,-10.75614 -2.45601,0.51821 -10.60727,-0.8532 -4.41737,-2.19112 5.1352,-0.51477 11.28253,0.76116 13.52448,6.00858 1.87848,2.74191 -0.5226,8.90408 3.89322,5.55375 -0.1768,2.15958 -3.86711,9.71875 -5.87453,3.86374 z"
         id="path144" /><path
         style="fill:none;fill-opacity:1;stroke:#6b8aa7;stroke-opacity:1"
         d="m 127.8346,188.2058 c 0.42885,-2.40165 1.98771,-3.33508 -1.4392,-2.88633 -11.26483,-0.0846 -22.52965,-0.16926 -33.79448,-0.25389 -6.645634,-2.02843 -11.94869,-8.48778 -11.150672,-15.64468 0.387759,-7.8824 7.914384,-14.32202 15.746567,-13.62874 0.456385,-0.318 -2.286203,-4.72563 1.334409,-2.18712 3.818556,1.70156 4.441536,4.14106 0.422119,6.00971 -2.429781,2.87245 -3.274529,-0.50877 -1.434756,-1.90809 -7.089991,-0.50068 -14.09635,5.18991 -14.053626,12.49335 -0.502996,2.23647 2.168482,9.66231 3.462951,8.16797 0.338557,-2.39862 1.114191,-4.56244 0.359562,-0.62613 -1.227518,2.74232 3.066769,3.93248 4.790038,4.54564 4.031781,1.92352 8.613328,0.25025 12.812188,0.98324 7.84308,-0.0359 15.72473,0.37538 23.54402,-0.17757 -1.17618,-1.89897 -0.30685,-4.11896 2.17258,-1.39293 5.72194,2.50227 0.48655,5.46997 -2.7717,6.50557 z"
         id="path126" /></g><g
       id="g201"
       style="stroke:#beddfc;stroke-opacity:1"><path
         style="fill:none;fill-opacity:1;stroke:#beddfc;stroke-opacity:1"
         d="m 89.955087,136.93884 c 4.264787,-1.77154 5.726528,-7.31974 3.691462,-11.22627 -2.813639,-5.06853 -11.266539,-5.42373 -13.948698,-0.0397 -3.28329,5.06597 1.036176,12.51968 7.076552,12.01573 1.096029,-0.0371 2.18192,-0.2984 3.180684,-0.74972 z"
         id="path195" /><path
         style="fill:none;fill-opacity:1;stroke:#beddfc;stroke-opacity:1"
         d="m 83.088987,139.15135 c -5.694161,-1.9392 -8.136117,-9.29264 -5.225172,-14.35993 3.178802,-6.2342 12.778965,-6.83257 16.758404,-1.11809 4.454941,5.32479 1.12617,14.42741 -5.677507,15.72864 -1.921697,0.38014 -3.99675,0.45417 -5.855725,-0.25062 z"
         id="path194" /><path
         style="fill:none;fill-opacity:1;stroke:#beddfc;stroke-opacity:1"
         d="m 120.23716,161.27525 c 1.44897,-1.45096 2.89793,-2.90193 4.3469,-4.35289 -2.94742,-3.05585 -5.80995,-6.21139 -8.99589,-9.0213 -2.0844,3.2767 -10.54848,6.80247 -7.35391,10.7872 3.35666,3.13106 7.45833,10.30642 11.12192,3.46139 l 0.43619,-0.43098 z"
         id="path156" /><path
         style="fill:none;fill-opacity:1;stroke:#beddfc;stroke-opacity:1"
         d="m 109.60813,162.77614 c -3.84018,-2.68718 -7.00315,-7.5726 -1.47321,-10.56852 3.09526,-2.87745 7.30863,-9.63302 11.05778,-3.62142 2.20882,3.25932 10.66665,7.21661 5.2899,11.17901 -3.55762,2.5172 -7.68643,11.47464 -12.11248,5.74889 -0.92908,-0.90412 -1.84471,-1.82191 -2.76199,-2.73796 z"
         id="path155" /><path
         style="fill:none;fill-opacity:1;stroke:#beddfc;stroke-opacity:1"
         d="m 151.73529,184.28115 c 0,-2.33715 0,-4.67431 0,-7.01146 -4.58611,0 -9.17222,0 -13.75833,0 -0.0116,4.67415 -0.18064,9.35065 0,14.02292 4.58611,0 9.17222,0 13.75833,0 0,-2.33715 0,-4.67431 0,-7.01146 z"
         id="path123" /><path
         style="fill:none;fill-opacity:1;stroke:#beddfc;stroke-opacity:1"
         d="m 136.91863,193.22349 c -2.24592,-4.10611 -0.50753,-9.86213 -1.02162,-14.58321 -0.64514,-5.50411 6.84641,-2.43338 10.15561,-3.22267 2.33113,0 4.66226,0 6.99339,0 1.55334,3.21289 0.45383,7.10028 0.731,10.59171 -0.17689,2.15254 0.27064,4.60646 -0.28735,6.57506 -4.326,1.6657 -9.42411,0.44106 -14.06319,0.74316 -0.83603,-0.0271 -1.67465,-0.0173 -2.50784,-0.10405 z"
         id="path122" /></g><g
       id="g203"><path
         style="fill:none;fill-opacity:1;stroke:#3b105c;stroke-opacity:1"
         d="m 108.07904,192.08636 c -0.90337,-0.92168 2.13496,0.98627 0,0 z"
         id="path125" /><path
         style="fill:none;fill-opacity:1;stroke:#3b105c;stroke-opacity:1"
         d="m 109.53425,192.61552 c -1.18927,-0.95193 1.98669,0.71357 0,0 z"
         id="path124" /><path
         style="fill:none;fill-opacity:1;stroke:#3b105c;stroke-opacity:1"
         d="m 117.6671,193.10191 c -1.20025,-4.93387 3.92023,1.2158 0,0 z"
         id="path121" /><path
         style="fill:none;fill-opacity:1;stroke:#3b105c;stroke-opacity:1"
         d="m 114.7525,192.9974 c -2.68775,-3.91405 4.87594,-1.86141 0.84075,0.3856 l -0.84075,-0.38561 z"
         id="path120" /><path
         style="fill:none;fill-opacity:1;stroke:#3b105c;stroke-opacity:1"
         d="m 111.88482,193.0279 c 0.24025,-4.5779 3.38349,1.56102 0,0 z"
         id="path119" /><path
         style="fill:none;fill-opacity:1;stroke:#3b105c;stroke-opacity:1"
         d="m 104.06215,192.74787 c 0.0963,-6.32473 5.75574,2.68559 0,0 z"
         id="path118" /><path
         style="fill:none;fill-opacity:1;stroke:#3b105c;stroke-opacity:1"
         d="m 118.40757,195.4194 c -2.48726,-4.28369 4.28506,2.15136 0,0 z"
         id="path117" /><path
         style="fill:none;fill-opacity:1;stroke:#3b105c;stroke-opacity:1"
         d="m 110.98946,195.4087 c 1.03409,-2.96236 3.97327,-0.52844 0.65894,0.68969 l -0.46114,-0.17443 z"
         id="path116" /><path
         style="fill:none;fill-opacity:1;stroke:#3b105c;stroke-opacity:1"
         d="m 126.35269,194.72293 c 2.27362,-2.98698 -4.37843,-1.87769 -0.80476,0.25144 z"
         id="path115" /><path
         style="fill:none;fill-opacity:1;stroke:#3b105c;stroke-opacity:1"
         d="m 125.1005,196.43235 c -2.75837,0.0123 -3.0569,-4.94884 -0.3202,-5.25329 2.31599,-1.68611 4.63804,2.28974 3.4093,4.2173 -0.0442,0.50716 -2.64355,1.73162 -3.0891,1.03599 z"
         id="path114" /><path
         style="fill:none;fill-opacity:1;stroke:#3b105c;stroke-opacity:1"
         d="m 102.64262,196.1213 c 1.07224,-5.37834 8.8674,1.61627 2.49732,0.72761 -0.68218,-0.31739 -3.32762,0.73963 -2.49732,-0.72761 z"
         id="path113" /><path
         style="fill:none;fill-opacity:1;stroke:#3b105c;stroke-opacity:1"
         d="m 113.05727,196.81871 c -1.46403,-5.26247 8.62318,-1.27755 3.34352,0.0119 -1.11077,0.062 -2.23852,0.18949 -3.34352,-0.0119 z"
         id="path112" /></g><g
       id="g204"><g
         id="g199"
         style="stroke:#384959;stroke-opacity:1"><path
           style="fill:none;fill-opacity:1;stroke:#384959;stroke-opacity:1"
           d="m 117.60404,121.44267 c -0.75778,-0.9569 1.47061,0.86665 0,0 z"
           id="path198" /><path
           style="fill:none;fill-opacity:1;stroke:#384959;stroke-opacity:1"
           d="m 117.95748,133.99259 c 0.26788,-2.69598 2.72047,1.39392 0,0 z"
           id="path197" /><path
           style="fill:none;fill-opacity:1;stroke:#384959;stroke-opacity:1"
           d="m 120.51446,136.52392 c 1.27955,-1.91395 -0.68024,1.88067 0,0 z"
           id="path196" /><path
           style="fill:none;fill-opacity:1;stroke:#384959;stroke-opacity:1"
           d="m 129.51029,141.94788 c 2.97796,-1.32338 -1.71214,1.24534 0,0 z"
           id="path193" /><path
           style="fill:none;fill-opacity:1;stroke:#384959;stroke-opacity:1"
           d="m 127.92279,142.60933 c 2.06461,-0.94931 -0.8158,0.88639 0,0 z"
           id="path192" /><path
           style="fill:none;fill-opacity:1;stroke:#384959;stroke-opacity:1"
           d="m 130.56863,143.30319 c 1.59468,-1.90734 0.50873,0.17768 0,0 z"
           id="path191" /><path
           style="fill:none;fill-opacity:1;stroke:#384959;stroke-opacity:1"
           d="m 132.97076,144.04249 c 0.24448,-0.99026 0.11305,1.14961 0,0 z"
           id="path190" /><path
           style="fill:none;fill-opacity:1;stroke:#384959;stroke-opacity:1"
           d="m 125.24506,143.79416 c 4.5653,-1.87867 -3.43761,1.85631 0,0 z"
           id="path189" /><path
           style="fill:none;fill-opacity:1;stroke:#384959;stroke-opacity:1"
           d="m 127.27341,148.49631 c 3.73188,-5.82069 -0.4543,1.74734 0,0 z"
           id="path187" /><path
           style="fill:none;fill-opacity:1;stroke:#384959;stroke-opacity:1"
           d="m 139.30798,150.14996 c 0.26509,-1.38651 0.86366,-0.67154 0.0753,0.0703 z"
           id="path186" /><path
           style="fill:none;fill-opacity:1;stroke:#384959;stroke-opacity:1"
           d="m 148.58303,151.83803 c 0.94611,-2.81842 2.61802,-5.07688 0.58736,-1.01445 l -0.29016,0.56755 z"
           id="path185" /><path
           style="fill:none;fill-opacity:1;stroke:#384959;stroke-opacity:1"
           d="m 138.51423,152.26663 c 0.2651,-1.38651 0.86365,-0.67154 0.0753,0.0703 z"
           id="path184" /><path
           style="fill:none;fill-opacity:1;stroke:#384959;stroke-opacity:1"
           d="m 150.48356,153.53848 c 2.25974,-0.22789 -0.37638,0.43455 0,0 z"
           id="path183" /><path
           style="fill:none;fill-opacity:1;stroke:#384959;stroke-opacity:1"
           d="m 152.23071,158.2859 c -0.81387,-1.21365 1.60994,1.53387 0,0 z"
           id="path182" /><path
           style="fill:none;fill-opacity:1;stroke:#384959;stroke-opacity:1"
           d="m 130.20717,122.86796 c 4.8536,-4.13982 -1.61241,-3.27909 -4.59041,-3.27738 -3.62787,-0.6716 -2.29337,0.97619 -0.32368,2.91748 1.32759,2.37658 3.28121,3.03769 4.91409,0.3599 z"
           id="path179" /><path
           style="fill:none;fill-opacity:1;stroke:#384959;stroke-opacity:1"
           d="m 146.28,126.5883 c 0.022,-1.11375 -0.78511,1.3193 0,0 z"
           id="path178" /><path
           style="fill:none;fill-opacity:1;stroke:#384959;stroke-opacity:1"
           d="m 143.63986,127.24749 c 0.19268,-1.18367 2.48606,1.88462 1.21587,-1.04039 3.21388,-0.44023 -2.74494,-0.83567 -1.43516,1.75303 l 0.21925,-0.71269 z"
           id="path177" /><path
           style="fill:none;fill-opacity:1;stroke:#384959;stroke-opacity:1"
           d="m 131.01838,124.70763 c -3.06435,-2.59912 3.14139,0.25956 0,0 z"
           id="path176" /><path
           style="fill:none;fill-opacity:1;stroke:#384959;stroke-opacity:1"
           d="m 137.44779,126.07798 c 0.361,-2.32197 1.00958,-4.55714 3.54939,-5.23101 -0.94582,-0.85166 -3.59534,-0.65478 0.0593,-1.16841 -1.54236,-0.0589 -4.52118,-0.23674 -2.70583,0.61905 -1.70049,1.11589 0.12142,4.87234 -3.46056,3.33715 -2.46206,-0.0539 -3.18053,-0.30424 -1.94024,-1.1337 0.34648,-2.9543 -7.89901,4.62433 -1.39378,3.88998 -1.41159,-2.2469 7.36343,5.56759 5.89168,-0.31306 z"
           id="path175" /><path
           style="fill:none;fill-opacity:1;stroke:#384959;stroke-opacity:1"
           d="m 143.79779,129.01166 c -0.8778,-0.93011 -1.17837,0.49829 0,0 z"
           id="path174" /><path
           style="fill:none;fill-opacity:1;stroke:#384959;stroke-opacity:1"
           d="m 139.68243,128.66069 c -1.44635,-1.7873 -2.64182,1.16259 0,0 z"
           id="path173" /><path
           style="fill:none;fill-opacity:1;stroke:#384959;stroke-opacity:1"
           d="m 142.94831,129.52415 c -2.40089,-0.69182 -2.13982,0.78119 0,0 z"
           id="path172" /><path
           style="fill:none;fill-opacity:1;stroke:#384959;stroke-opacity:1"
           d="m 151.33842,132.28309 c -3.66016,-0.0819 -1.58071,-5.53792 -2.66243,-0.69469 0.009,0.26943 4.00162,1.31992 2.66243,0.69469 z"
           id="path171" /><path
           style="fill:none;fill-opacity:1;stroke:#384959;stroke-opacity:1"
           d="m 143.44937,133.56395 c -0.46619,-0.50188 0.16689,1.52675 0,0 z"
           id="path170" /><path
           style="fill:none;fill-opacity:1;stroke:#384959;stroke-opacity:1"
           d="m 148.61544,136.39169 c -0.82522,-3.392 4.5102,-0.2423 5.23247,-2.18282 -0.70031,-0.63814 -3.72728,0.0338 -3.10517,-1.32717 -2.5032,-2.03657 -2.5048,3.49121 -3.97413,1.79035 0.59766,0.79355 2.49414,5.11546 1.84683,1.71964 z"
           id="path169" /><path
           style="fill:none;fill-opacity:1;stroke:#384959;stroke-opacity:1"
           d="m 142.92281,136.85974 c -0.434,-0.37574 0.22821,2.25963 0,0 z"
           id="path168" /><path
           style="fill:none;fill-opacity:1;stroke:#384959;stroke-opacity:1"
           d="m 136.65404,134.40731 c -0.16516,-1.57796 -3.25319,-1.37005 -0.68295,-3.64394 -0.19424,-0.0398 -6.37409,-1.22434 -1.83608,-1.37889 2.31635,-0.33175 4.08546,-0.10641 3.29126,2.64157 0.0425,0.66909 -2.4e-4,3.72121 -0.77223,2.38126 z"
           id="path167" /><path
           style="fill:none;fill-opacity:1;stroke:#384959;stroke-opacity:1"
           d="m 133.87592,139.49805 c 3.39513,-3.27472 4.19964,-4.1334 7.40848,-6.53013 2.54885,-1.11339 -2.42772,-2.64966 -1.01943,-2.59218 -2.24208,-1.43528 -8.9712,-4.66454 -8.91988,-1.74762 -0.64369,-0.89087 -1.00527,-2.97732 -2.97084,-1.73527 1.73527,4.28773 1.83174,9.81921 4.57565,13.32592 l 0.92604,-0.72082 z"
           id="path166" /><path
           style="fill:none;fill-opacity:1;stroke:#384959;stroke-opacity:1"
           d="m 141.54883,135.20106 c 1.21662,-0.9409 0.0171,0.90375 0,0 z"
           id="path165" /><path
           style="fill:none;fill-opacity:1;stroke:#384959;stroke-opacity:1"
           d="m 140.5346,136.87676 c -1.20036,-1.34396 1.38146,0.23212 0,0 z"
           id="path164" /><path
           style="fill:none;fill-opacity:1;stroke:#384959;stroke-opacity:1"
           d="m 141.7586,141.7495 c 1.35364,-1.61987 0.88986,-5.39191 -0.50351,-4.66051 -1.39798,-2.59049 0.95929,-1.42308 1.7698,-1.46592 0.21104,0.6224 0.47775,-5.74453 -1.73445,-2.06384 -2.00712,2.77613 -6.28575,4.20026 -7.86184,7.21886 2.63474,0.48176 5.69389,1.57663 8.33,0.97141 z"
           id="path163" /><path
           style="fill:none;fill-opacity:1;stroke:#384959;stroke-opacity:1"
           d="m 153.03352,141.17258 c 1.96091,-4.89642 -0.24423,0.53015 -2.4934,-1.80441 -2.50065,-2.07815 1.96664,7.52168 2.4934,1.80441 z"
           id="path162" /><path
           style="fill:none;fill-opacity:1;stroke:#384959;stroke-opacity:1"
           d="m 151.30904,143.45068 c -1.63781,-2.8113 -3.76919,-5.23497 -4.6126,-8.00635 -3.82477,-3.77939 -6.03158,7.93164 -1.14581,7.27159 1.87095,0.20745 3.95567,1.04306 5.75841,0.73476 z"
           id="path161" /><path
           style="fill:none;fill-opacity:1;stroke:#384959;stroke-opacity:1"
           d="m 153.84937,143.07242 c 0.50448,-3.50864 -0.81519,-2.31818 -1.03718,0.48589 0.76327,3.0619 1.22513,2.71874 1.03718,-0.48589 z"
           id="path160" /><path
           style="fill:none;fill-opacity:1;stroke:#384959;stroke-opacity:1"
           d="m 140.6309,146.71044 c 0.2651,-1.38652 0.86365,-0.67153 0.0753,0.0703 z"
           id="path159" /><path
           style="fill:none;fill-opacity:1;stroke:#384959;stroke-opacity:1"
           d="m 144.9288,147.67024 c -0.98177,-1.58517 -2.72706,-6.67148 -3.72045,-2.27043 2.92963,-4.4514 -7.53167,-3.98823 -7.34653,-3.58418 4.37791,3.4552 8.69793,6.99747 13.18364,10.30903 -0.54454,-1.54742 -1.39675,-2.98302 -2.11666,-4.45442 z"
           id="path158" /><path
           style="fill:none;fill-opacity:1;stroke:#384959;stroke-opacity:1"
           d="m 154.16102,162.15934 c 0.70105,-2.748 -0.54622,-8.90071 -1.97075,-8.33421 2.60581,1.11153 1.40187,-2.09295 1.66169,-3.63915 1.09349,-3.03647 -2.05983,-8.18787 -3.32618,-2.61249 3.89605,-4.67754 -6.56347,-5.26558 -7.32202,-4.0869 2.25374,3.22699 2.4614,8.78617 6.56345,9.79509 -3.16397,-0.0509 4.44992,6.15761 0.1072,2.22615 -2.95645,-3.29471 -6.568,-5.86782 -10.10738,-8.66069 -2.13559,-2.26291 -6.96141,-4.76608 -8.03426,-5.40284 -2.24679,-3.03524 -5.01412,-8.5699 -8.57248,-9.15285 -2.41649,4.01869 -0.42469,1.09332 -0.50371,-0.55681 -3.62883,2.47673 2.52304,-4.17599 2.40178,0.64383 1.77267,2.28651 4.87617,6.12145 6.41334,6.77775 -1.62585,-3.57668 -1.51861,-10.50508 -4.46334,-12.09645 -1.38954,1.81963 -3.58061,4.10552 -1.01457,0.72074 4.2484,-3.4184 -9.77157,-5.85061 -3.02827,-4.32769 2.00717,0.94573 5.10355,2.24557 2.14122,-0.676 -1.35087,-1.28296 -2.11279,-3.82549 -4.38348,-3.16905 -2.72158,-0.48766 -5.62279,0.93846 -7.66024,0.0718 -3.29973,0.002 -3.34239,-0.73243 -0.0251,-0.61281 10.07243,0.0679 20.17331,-0.41055 30.22792,0.12878 6.95285,1.30124 11.93601,8.25029 11.31583,15.22842 0.02,10.61096 0.14181,21.25277 -0.28172,31.84446 -0.1494,-1.36302 -0.10547,-2.74048 -0.13895,-4.10905 z"
           id="path157" /></g><g
         id="g202"
         style="stroke:#384959;stroke-opacity:1"><path
           style="fill:none;fill-opacity:1;stroke:#384959;stroke-opacity:1"
           d="m 81.196881,163.6397 c -2.693618,-0.44516 -1.411577,-3.36178 -0.08991,-1.36077 -0.568878,0.49623 1.69797,3.26234 0.08991,1.36077 z"
           id="path181" /><path
           style="fill:none;fill-opacity:1;stroke:#384959;stroke-opacity:1"
           d="m 101.19988,166.15725 c 1.27955,-1.91395 -0.68025,1.8807 0,0 z"
           id="path180" /><path
           style="fill:none;fill-opacity:1;stroke:#384959;stroke-opacity:1"
           d="m 100.40613,167.49584 c 0.56721,-1.41915 0.38098,0.91551 0,0 z"
           id="path154" /><path
           style="fill:none;fill-opacity:1;stroke:#384959;stroke-opacity:1"
           d="m 89.492066,167.59344 c -2.477637,-1.80351 2.745605,1.35062 0,0 z"
           id="path153" /><path
           style="fill:none;fill-opacity:1;stroke:#384959;stroke-opacity:1"
           d="m 79.282889,167.61244 c 0.08619,-2.20744 1.207892,-5.06071 0.369015,-1.05833 l -0.256163,0.96572 -0.08039,0.17281 z"
           id="path152" /><path
           style="fill:none;fill-opacity:1;stroke:#384959;stroke-opacity:1"
           d="m 106.15641,167.97648 c 1.54498,-0.85396 -0.7027,0.90996 0,0 z"
           id="path151" /><path
           style="fill:none;fill-opacity:1;stroke:#384959;stroke-opacity:1"
           d="m 90.997844,168.39159 c -1.301323,-1.1651 1.92623,1.21119 0,0 z"
           id="path150" /><path
           style="fill:none;fill-opacity:1;stroke:#384959;stroke-opacity:1"
           d="m 96.437378,171.70392 c -1.809135,-0.94408 -6.741587,-4.21834 -2.189289,-1.5607 0.232875,0.0366 3.864711,2.2414 2.189289,1.5607 z"
           id="path149" /><path
           style="fill:none;fill-opacity:1;stroke:#384959;stroke-opacity:1"
           d="m 93.463901,172.05552 c 3.031955,-0.10075 -0.287464,0.33185 0,0 z"
           id="path148" /><path
           style="fill:none;fill-opacity:1;stroke:#384959;stroke-opacity:1"
           d="m 95.71481,172.32388 c 2.259744,-0.22789 -0.376379,0.43455 0,0 z"
           id="path147" /><path
           style="fill:none;fill-opacity:1;stroke:#384959;stroke-opacity:1"
           d="m 87.71237,172.38248 c -3.050621,-0.96541 -3.52436,-0.1985 -0.270825,-0.95358 -1.472727,-2.48947 -3.466801,-4.6841 -0.427398,-1.45331 1.165892,0.32938 3.362794,2.90837 0.698223,2.40689 z"
           id="path146" /><path
           style="fill:none;fill-opacity:1;stroke:#384959;stroke-opacity:1"
           d="m 98.818628,173.02108 c 0.537913,-0.58065 0.599028,0.88536 0,0 z"
           id="path145" /><path
           style="fill:none;fill-opacity:1;stroke:#384959;stroke-opacity:1"
           d="m 98.024878,173.85081 c -2.648878,-1.50538 2.323582,-4.50064 0.312581,-0.51903 0.147515,-0.21744 -0.382392,1.49286 -0.312581,0.51903 z"
           id="path143" /><path
           style="fill:none;fill-opacity:1;stroke:#384959;stroke-opacity:1"
           d="m 87.747905,173.83041 c 0.19844,-1.46275 0.19832,1.46268 0,0 z"
           id="path142" /><path
           style="fill:none;fill-opacity:1;stroke:#384959;stroke-opacity:1"
           d="m 102.58445,175.30419 c -3.794904,-2.21692 1.78267,0.25045 1.52822,0.83822 l -0.62905,-0.31046 z"
           id="path141" /><path
           style="fill:none;fill-opacity:1;stroke:#384959;stroke-opacity:1"
           d="m 115.48738,176.46794 c 1.36494,-2.69321 1.59229,2.20974 0,0 z"
           id="path140" /><path
           style="fill:none;fill-opacity:1;stroke:#384959;stroke-opacity:1"
           d="m 98.860404,176.47594 c 0.19844,-1.46275 0.19832,1.46268 0,0 z"
           id="path139" /><path
           style="fill:none;fill-opacity:1;stroke:#384959;stroke-opacity:1"
           d="m 80.461991,175.88063 c -2.031402,-2.40068 -3.342087,-4.77233 -1.278494,-6.94531 -0.851319,2.75866 1.253735,5.99979 1.904391,7.94498 z"
           id="path138" /><path
           style="fill:none;fill-opacity:1;stroke:#384959;stroke-opacity:1"
           d="m 77.408267,177.11535 c 0.244461,-0.99025 0.113054,1.1496 0,0 z"
           id="path137" /><path
           style="fill:none;fill-opacity:1;stroke:#384959;stroke-opacity:1"
           d="m 106.34368,177.38739 c -1.30132,-1.16511 1.92618,1.21119 0,0 z"
           id="path136" /><path
           style="fill:none;fill-opacity:1;stroke:#384959;stroke-opacity:1"
           d="m 99.248189,177.92092 c -0.693833,-1.9366 0.974751,1.2395 0,0 z"
           id="path135" /><path
           style="fill:none;fill-opacity:1;stroke:#384959;stroke-opacity:1"
           d="m 82.271291,179.10417 c -0.323214,-1.327 0.861163,1.00767 0,0 z"
           id="path134" /><path
           style="fill:none;fill-opacity:1;stroke:#384959;stroke-opacity:1"
           d="m 99.633266,179.4966 c 0.24446,-0.99025 0.113056,1.1496 0,0 z"
           id="path133" /><path
           style="fill:none;fill-opacity:1;stroke:#384959;stroke-opacity:1"
           d="m 94.849878,180.5956 c 1.447691,-1.27138 1.385618,-0.2351 0,0 z"
           id="path132" /><path
           style="fill:none;fill-opacity:1;stroke:#384959;stroke-opacity:1"
           d="m 110.52644,180.78054 c -0.68585,-1.84891 -5.45618,-3.98264 -1.01906,-1.75122 1.14697,0.16127 3.8495,1.04145 1.01906,1.75122 z"
           id="path131" /><path
           style="fill:none;fill-opacity:1;stroke:#384959;stroke-opacity:1"
           d="m 90.864494,180.00392 c 1.782755,-1.96442 5.071897,-5.79819 6.053007,-6.44633 -1.956774,2.19956 -5.558945,6.47239 -6.783622,7.31821 z"
           id="path130" /><path
           style="fill:none;fill-opacity:1;stroke:#384959;stroke-opacity:1"
           d="m 93.526962,181.38935 c 1.447688,-1.27138 1.385618,-0.2351 0,0 z"
           id="path129" /><path
           style="fill:none;fill-opacity:1;stroke:#384959;stroke-opacity:1"
           d="m 109.13738,181.9323 c 1.59468,-1.90734 0.50873,0.17768 0,0 z"
           id="path128" /><path
           style="fill:none;fill-opacity:1;stroke:#384959;stroke-opacity:1"
           d="m 100.18965,181.45492 c -0.946944,-3.85059 1.33907,3.34014 0,0 z"
           id="path127" /><path
           style="fill:none;fill-opacity:1;stroke:#384959;stroke-opacity:1"
           d="m 99.004795,199.46732 c 1.893535,-0.36457 0.731847,0.95491 0,0 z"
           id="path111" /><path
           style="fill:none;fill-opacity:1;stroke:#384959;stroke-opacity:1"
           d="m 82.268941,184.71405 c -3.677199,-2.14372 -4.236791,0.70104 0,0 z"
           id="path110" /><path
           style="fill:none;fill-opacity:1;stroke:#384959;stroke-opacity:1"
           d="m 77.303536,185.6868 c -0.466152,-0.50186 0.166856,1.52675 0,0 z"
           id="path109" /><path
           style="fill:none;fill-opacity:1;stroke:#384959;stroke-opacity:1"
           d="m 81.73578,186.27212 c 2.853798,-2.12423 -3.834202,0.96244 0,0 z"
           id="path108" /><path
           style="fill:none;fill-opacity:1;stroke:#384959;stroke-opacity:1"
           d="m 84.367499,189.29454 c 0.02193,-1.1137 -0.785055,1.31928 0,0 z"
           id="path107" /><path
           style="fill:none;fill-opacity:1;stroke:#384959;stroke-opacity:1"
           d="m 87.881357,189.37444 c -0.458985,-0.0856 0.277772,1.76795 0,0 z"
           id="path106" /><path
           style="fill:none;fill-opacity:1;stroke:#384959;stroke-opacity:1"
           d="m 89.558212,191.70516 c -0.667362,-1.03604 -0.728707,0.55616 0,0 z"
           id="path105" /><path
           style="fill:none;fill-opacity:1;stroke:#384959;stroke-opacity:1"
           d="m 94.651441,198.76087 c 2.997006,-2.10723 3.056682,-3.95553 -0.847641,-3.10912 -0.690387,-1.44491 0.942844,-5.32409 -2.100613,-4.359 -4.748419,-0.0485 2.434928,3.09067 -1.666869,3.99072 3.502441,-0.34342 3.522221,1.686 4.085957,3.89275 l 0.401009,-0.15943 0.128158,-0.25584 z"
           id="path104" /><path
           style="fill:none;fill-opacity:1;stroke:#384959;stroke-opacity:1"
           d="m 86.647795,198.96558 c -2.064606,-0.94932 0.8158,0.88639 0,0 z"
           id="path103" /><path
           style="fill:none;fill-opacity:1;stroke:#384959;stroke-opacity:1"
           d="m 91.344149,199.84153 c -2.268733,-0.25741 -0.09739,0.42609 0,0 z"
           id="path102" /><path
           style="fill:none;fill-opacity:1;stroke:#384959;stroke-opacity:1"
           d="m 87.206682,200.1349 c -5.55192,-1.52856 -10.285963,-6.76483 -10.751187,-12.53945 0.004,-11.86422 -0.341198,-23.74132 0.323508,-35.59341 0.173144,2.2123 -0.221255,4.64943 0.27922,6.73207 0.909038,1.01627 3.771908,4.01568 1.312939,1.61337 -2.803908,-3.0594 -0.673636,5.62465 -1.208286,7.2985 0.317808,3.13099 0.05552,6.029 0.356792,6.97794 -0.07098,3.28172 -2.201285,8.94912 2.651479,7.08284 1.653853,0.90879 0.38414,0.006 -0.73873,0.89339 0.535614,0.76292 2.75924,2.49746 3.503581,0.4904 2.763521,2.37315 1.203428,-1.53014 2.768301,1.22311 1.453234,0.006 3.782621,2.08477 0.495092,3.07655 1.317117,0.88146 -1.512569,-0.4041 -0.874516,1.33716 2.121519,-0.86764 2.577762,0.79977 3.051034,-1.89729 2.012655,1.9715 7.001778,3.74092 6.039377,5.1733 -1.058207,6.85698 9.312214,0.31758 6.378724,-2.30121 -2.851795,-0.74596 -5.317085,-1.89017 -0.979472,-0.65026 1.520102,0.44388 5.482182,-0.59774 2.512612,1.80184 -3.12857,3.5721 -3.709016,4.43296 -6.494884,7.93844 -2.047932,0.53066 1.902079,0.40477 -0.8501,1.03943 8.326544,0.34697 16.678364,0.066 25.001974,0.52419 -10.7348,0.12484 -21.493323,0.35498 -32.219429,-0.11337 l -0.558033,-0.10754 z"
           id="path101" /></g></g><path
       style="display:inline;fill:none;fill-opacity:1;stroke:#6b8aa7;stroke-opacity:1"
       d="m 97.098836,211.11935 c -6.049126,-0.34534 -12.29192,0.55164 -18.198199,-0.97031 -9.202623,-2.84973 -15.914394,-12.23061 -15.05609,-21.92752 -0.152951,-21.42125 -0.05615,-42.84357 -0.08321,-64.26531 1.715578,-9.1123 9.120189,-17.4828 18.759554,-17.97956 18.229969,-0.76761 36.493559,-0.26816 54.736639,-0.36632 7.23124,0.17884 15.31178,-0.76682 21.32831,4.144 6.12499,4.35937 9.22573,11.99416 8.66431,19.39868 0.0882,21.2408 0.2796,42.49156 -0.1799,63.72716 -1.48688,10.18051 -11.16797,18.77521 -21.61322,18.09271 -16.11543,0.38309 -32.24006,0.26903 -48.358195,0.14647 z"
       id="path1" /></g></svg>
