<?xml version="1.0" encoding="UTF-8" standalone="no"?>
<!-- Created with Inkscape (http://www.inkscape.org/) -->

<svg
   width="224.78267mm"
   height="209.50381mm"
   viewBox="0 0 224.78267 209.50381"
   version="1.1"
   id="svg1"
   xml:space="preserve"
   xmlns:inkscape="http://www.inkscape.org/namespaces/inkscape"
   xmlns:sodipodi="http://sodipodi.sourceforge.net/DTD/sodipodi-0.dtd"
   xmlns="http://www.w3.org/2000/svg"
   xmlns:svg="http://www.w3.org/2000/svg"><sodipodi:namedview
     id="namedview1"
     pagecolor="#ffffff"
     bordercolor="#000000"
     borderopacity="0.25"
     inkscape:showpageshadow="2"
     inkscape:pageopacity="0.0"
     inkscape:pagecheckerboard="0"
     inkscape:deskcolor="#d1d1d1"
     inkscape:document-units="mm" /><defs
     id="defs1" /><g
     inkscape:label="Layer 1"
     inkscape:groupmode="layer"
     id="layer1"
     transform="translate(-175.22223,-386.23946)"><g
       id="g7"><g
         id="g4"
         inkscape:export-filename="cancel.svg"
         inkscape:export-xdpi="74.578697"
         inkscape:export-ydpi="74.578697"
         transform="translate(281.73304)"><path
           d="m -98.231213,501.23349 c -3.062497,-0.14789 -6.208667,1.46072 -7.705477,4.25659 l -0.57412,1.07228 v 23.01875 23.01875 l 0.72037,3.30729 c 0.7551,3.46695 1.76268,6.81212 2.59054,8.59896 0.26969,0.58208 1.01352,2.18943 1.65261,3.57188 1.18643,2.56643 4.725346,8.01706 6.441984,9.92187 3.974909,4.41061 6.795417,6.89582 10.858252,9.56738 3.385099,2.22589 4.909023,3.01916 8.974646,4.67206 4.895881,1.99045 9.318501,3.00059 14.666805,3.35019 1.673487,0.10937 32.570241,0.17557 68.659375,0.14727 71.563108,-0.0562 66.656755,0.0443 72.892708,-1.4919 2.622038,-0.6459 7.417977,-2.48437 10.445874,-4.0044 2.301848,-1.15555 7.757257,-4.75259 9.016506,-5.94486 0.42977,-0.40692 1.27169,-1.12474 1.87069,-1.59525 0.59898,-0.47051 2.1302,-2.04184 3.40289,-3.49229 5.92454,-6.75203 10.0042,-14.84946 11.82253,-23.46575 0.60252,-2.85512 0.608,-3.06187 0.6873,-25.71936 l 0.0796,-22.8415 -0.62683,-1.36943 c -0.80152,-1.75076 -1.91815,-2.8582 -3.82613,-3.79512 -3.80222,-1.86711 -8.73262,-0.23445 -10.65464,3.52847 l -0.65423,1.28157 -0.14573,21.69584 c -0.10721,16.00406 -0.23297,22.1123 -0.48007,23.28333 -1.15126,5.45608 -3.747031,11.21238 -6.621818,14.68438 -2.835515,3.42457 -3.123561,3.70165 -7.270357,7.00319 -2.585277,2.0583 -9.108077,4.8583 -13.053983,5.60379 -2.477748,0.4681 -5.502004,0.48989 -69.26554,0.48989 -63.51763,0 -66.787825,-0.0228 -69.052633,-0.48317 -7.407096,-1.50555 -14.373618,-5.66889 -19.352307,-11.56519 -3.351048,-3.96867 -6.124746,-9.57829 -7.274491,-14.71228 -0.568463,-2.53837 -0.588343,-3.1879 -0.738973,-24.30394 -0.151963,-21.30298 -0.164693,-21.71739 -0.709001,-22.88646 -0.716947,-1.53986 -1.982106,-2.75261 -3.805969,-3.64836 -0.937928,-0.46064 -1.949529,-0.70518 -2.970361,-0.75447 z"
           id="path4-0" /><path
           d="m -106.22375,506.02622 -0.28706,0.53614 v -31.14195 -23.01875 -23.01875 l 0.72037,-3.30729 c 0.7551,-3.46695 1.76268,-6.81212 2.59054,-8.59896 0.26969,-0.58208 1.01352,-2.18943 1.65261,-3.57188 1.18643,-2.56643 4.725346,-8.01706 6.441984,-9.92187 3.974909,-4.41061 6.795417,-6.89582 10.858252,-9.56738 3.385099,-2.22589 4.909023,-3.01916 8.974646,-4.67206 4.895881,-1.99045 9.318501,-3.00059 14.666805,-3.35019 1.673487,-0.10937 32.570241,-0.17557 68.659375,-0.14727 71.563108,0.0562 66.656755,-0.0443 72.892708,1.4919 2.622038,0.6459 7.417977,2.48437 10.445874,4.0044 2.301848,1.15555 7.757259,4.75259 9.016506,5.94486 0.42977,0.40692 1.27169,1.12474 1.87069,1.59525 0.59898,0.47051 2.1302,2.04184 3.40289,3.49229 5.92454,6.75203 10.0042,14.84946 11.82253,23.46575 0.60252,2.85512 0.608,3.06187 0.6873,25.71936 l 0.0796,56.179 -0.62683,1.36943 c -0.8014,1.75081 -1.91815,2.8582 -3.82613,3.79512 -3.80222,1.86711 -8.73262,0.23445 -10.65464,-3.52847 l -0.65423,-1.28157 -0.14573,-55.03334 c -0.10721,-16.00406 -0.23297,-22.1123 -0.48007,-23.28333 -1.15126,-5.45608 -3.747027,-11.21238 -6.621818,-14.68438 -2.835515,-3.42457 -3.123561,-3.70165 -7.270357,-7.00319 -2.585277,-2.0583 -9.108077,-4.8583 -13.053983,-5.60379 -2.477748,-0.4681 -5.502004,-0.48989 -69.26554,-0.48989 -63.51763,0 -66.787825,0.0228 -69.052633,0.48317 -7.407096,1.50555 -14.373618,5.66889 -19.352307,11.56519 -3.351048,3.96867 -6.124746,9.57829 -7.274491,14.71228 -0.568463,2.53837 -0.588343,3.1879 -0.738973,24.30394 -0.151963,21.30298 -0.164693,51.00726 -0.709001,52.17633 -0.716947,1.53986 -4.892633,0.20323 -6.716498,1.09898 -0.937928,0.46064 -7.765329,-1.24522 -7.765329,-1.24522 z"
           id="path4-2"
           sodipodi:nodetypes="sscccssssssssssssssccsscccssssscsssssss" /></g><g
         id="g9"
         transform="translate(-32.422)"><g
           id="g5"
           transform="translate(305.85392,-1.6529092e-5)"><g
             id="g8"><path
               id="path3-6-7"
               d="m -12.469653,427.65555 c 2.5222904,0.0566 4.3963604,2.10117 32.410425,30.10204 31.591569,31.5768 30.046869,29.87043 29.989269,33.12666 -0.0155,0.87313 -0.0872,1.82563 -0.15968,2.11667 -0.42798,1.71872 -3.11915,4.53718 -30.016141,31.43322 -31.763743,31.76248 -29.6833326,29.89811 -33.328203,29.86381 -4.58269,-0.0431 -7.9841,-3.40342 -7.9871,-7.89048 -9.7e-4,-1.67436 -0.17028,-2.32738 2.28461,-5.19038 4.22129,-4.19295 9.4306204,-9.40817 16.8056904,-16.78295 26.8971046,-26.89604 29.5882566,-29.7145 30.0162366,-31.43322 0.0725,-0.29104 0.144177,-1.24354 0.159677,-2.11667 0.0576,-3.25623 1.602291,-1.54986 -29.9893636,-33.12666 -7.7978704,-7.79421 -13.4404304,-13.44551 -17.7653204,-17.73432 -0.20808,-0.2306 -0.71456,-0.75716 -0.73897,-0.80512 -0.80947,-1.59027 -1.02436,-3.59265 -0.57413,-5.35006 0.99657,-3.88999 3.81851,-6.15833 7.69411,-6.18463 0.46488,-0.003 0.83856,-0.036 1.19889,-0.0279 z" /></g></g></g></g></g></svg>
